<svg width="20" height="20" viewBox="0 0 20 20" fill="none" xmlns="http://www.w3.org/2000/svg">
<g clip-path="url(#clip0)">
<path fill-rule="evenodd" clip-rule="evenodd" d="M8.33335 15.001V17.501C8.33335 17.9612 8.70645 18.3343 9.16669 18.3343H10.8334C11.2936 18.3343 11.6667 17.9612 11.6667 17.501V15.001H13.3334V17.501C13.3334 18.8817 12.2141 20.001 10.8334 20.001H9.16669C7.78598 20.001 6.66669 18.8817 6.66669 17.501V15.001H8.33335Z" fill="#777E91"/>
<path fill-rule="evenodd" clip-rule="evenodd" d="M12.5 11.0721L13.1242 10.5717C14.2707 9.65265 15 8.24588 15 6.66764C15 3.90622 12.7614 1.66764 9.99998 1.66764C7.23856 1.66764 4.99998 3.90622 4.99998 6.66764C4.99998 8.24588 5.72928 9.65265 6.87576 10.5717L7.49998 11.0721V13.3343C7.49998 13.7945 7.87308 14.1676 8.33331 14.1676H11.6666C12.1269 14.1676 12.5 13.7945 12.5 13.3343V11.0721ZM14.1666 11.8721V13.3343C14.1666 14.715 13.0474 15.8343 11.6666 15.8343H8.33331C6.9526 15.8343 5.83331 14.715 5.83331 13.3343V11.8721C4.30921 10.6504 3.33331 8.77296 3.33331 6.66764C3.33331 2.98575 6.31808 0.000976562 9.99998 0.000976562C13.6819 0.000976562 16.6666 2.98575 16.6666 6.66764C16.6666 8.77296 15.6907 10.6504 14.1666 11.8721Z" fill="#777E91"/>
<path d="M8.92259 6.91168C8.59715 6.58624 8.06951 6.58624 7.74408 6.91168C7.41864 7.23712 7.41864 7.76475 7.74408 8.09019L9.16667 9.51278V14.1676H10.8333V9.51278L12.2559 8.09019C12.5814 7.76475 12.5814 7.23712 12.2559 6.91168C11.9305 6.58624 11.4028 6.58624 11.0774 6.91168L10 7.98909L8.92259 6.91168Z" fill="#777E91"/>
</g>
<defs>
<clipPath id="clip0">
<rect width="20" height="20" fill="white" transform="translate(0 0.000976562)"/>
</clipPath>
</defs>
</svg>
