<svg width="20" height="20" viewBox="0 0 20 20" fill="none" xmlns="http://www.w3.org/2000/svg">
<g clip-path="url(#clip0)">
<path d="M5.27511 11.2974C5.24089 11.9348 5.45971 12.5599 5.88398 13.0369C6.30825 13.5138 6.90366 13.804 7.54073 13.8442C8.17641 13.802 8.76984 13.511 9.19246 13.0343C9.61507 12.5576 9.83283 11.9335 9.79854 11.2974C9.83289 10.6604 9.61538 10.0355 9.19295 9.55752C8.77053 9.07955 8.17708 8.78687 7.54073 8.74268C6.90299 8.78491 6.30757 9.07674 5.88349 9.55493C5.45941 10.0331 5.24083 10.6591 5.27511 11.2974ZM8.23604 11.2974C8.23604 11.8286 7.91573 12.2817 7.54073 12.2817C7.16573 12.2817 6.83761 11.8286 6.83761 11.2974C6.83761 10.7661 7.15792 10.3052 7.54073 10.3052C7.92354 10.3052 8.23604 10.7583 8.23604 11.2974ZM12.6657 8.74268C12.0294 8.78687 11.4359 9.07955 11.0135 9.55752C10.5911 10.0355 10.3736 10.6604 10.4079 11.2974C10.3736 11.9335 10.5914 12.5576 11.014 13.0343C11.4366 13.511 12.0301 13.802 12.6657 13.8442C13.3028 13.804 13.8982 13.5138 14.3225 13.0369C14.7468 12.5599 14.9656 11.9348 14.9314 11.2974C14.9656 10.6591 14.7471 10.0331 14.323 9.55493C13.8989 9.07674 13.3035 8.78491 12.6657 8.74268ZM12.6657 12.2817C12.2907 12.2817 11.9704 11.8286 11.9704 11.2974C11.9704 10.7661 12.2907 10.3052 12.6657 10.3052C13.0407 10.3052 13.3689 10.7583 13.3689 11.2974C13.3689 11.8364 13.0485 12.2817 12.6657 12.2817Z" fill="#5661EA"/>
<path d="M18.4078 5.92109L18.3531 5.85077C18.3531 5.85077 18.3531 5.79609 18.3531 5.77265C16.997 4.1256 15.1255 2.98344 13.0407 2.53046C12.9396 2.50127 12.8338 2.49278 12.7294 2.50548C12.625 2.51818 12.5243 2.55182 12.4332 2.60438C12.3422 2.65694 12.2627 2.72734 12.1995 2.81136C12.1362 2.89538 12.0907 2.9913 12.0654 3.09337C12.0401 3.19543 12.0358 3.30154 12.0525 3.40534C12.0692 3.50915 12.1067 3.6085 12.1628 3.69746C12.2188 3.78642 12.2923 3.86315 12.3787 3.92305C12.4651 3.98296 12.5627 4.0248 12.6657 4.04609C14.3897 4.41571 15.9423 5.34725 17.0797 6.69452C18.1335 9.11294 18.6837 11.7206 18.6969 14.3586C17.6089 15.3734 16.2536 16.0564 14.7907 16.3273V15.9914C14.7907 15.9914 14.7907 15.9523 14.7907 15.9289C15.7538 15.5553 16.6567 15.042 17.4703 14.4055C17.633 14.276 17.7375 14.0872 17.761 13.8806C17.7844 13.674 17.7248 13.4665 17.5953 13.3039C17.4658 13.1412 17.277 13.0367 17.0704 13.0133C16.8639 12.9898 16.6564 13.0494 16.4938 13.1789C14.6599 14.5696 12.4034 15.2868 10.1032 15.2101C7.8215 15.2742 5.58631 14.5576 3.76721 13.1789C3.68668 13.1148 3.5943 13.0671 3.49535 13.0387C3.39641 13.0103 3.29283 13.0016 3.19054 13.0133C2.98396 13.0367 2.79515 13.1412 2.66565 13.3039C2.53615 13.4665 2.47657 13.674 2.50001 13.8806C2.52345 14.0872 2.628 14.276 2.79065 14.4055C3.59876 15.0418 4.49648 15.5551 5.45471 15.9289V16.3273C3.99173 16.0564 2.63651 15.3734 1.54846 14.3586C1.56658 11.7195 2.12215 9.11181 3.18128 6.69452C4.31874 5.34725 5.87129 4.41571 7.59534 4.04609C7.78936 3.99002 7.95414 3.861 8.0551 3.68608C8.15606 3.51117 8.18536 3.30395 8.13685 3.1079C8.08834 2.91185 7.9658 2.7422 7.79492 2.63454C7.62405 2.52689 7.41812 2.48958 7.22034 2.53046C5.13546 2.98344 3.26398 4.1256 1.90784 5.77265C1.90784 5.77265 1.90784 5.82734 1.90784 5.85077L1.85315 5.92109C0.337527 9.04609 0.165652 11.8976 0.00158937 14.6242C-0.00547635 14.7348 0.0110715 14.8457 0.0501338 14.9494C0.0891962 15.0531 0.149879 15.1473 0.228152 15.2258C1.81598 16.8441 3.93647 17.8322 6.1969 18.007C6.40185 18.0062 6.59826 17.9248 6.74378 17.7805C6.8176 17.7081 6.87632 17.6218 6.91655 17.5266C6.95679 17.4314 6.97772 17.3291 6.97815 17.2258V16.4445C9.03373 16.9254 11.1726 16.9254 13.2282 16.4445V17.2258C13.2286 17.3291 13.2495 17.4314 13.2897 17.5266C13.33 17.6218 13.3887 17.7081 13.4625 17.7805C13.608 17.9248 13.8044 18.0062 14.0094 18.007C16.2921 17.8612 18.4427 16.8859 20.0563 15.2648C20.1345 15.1864 20.1952 15.0922 20.2343 14.9884C20.2734 14.8847 20.2899 14.7739 20.2828 14.6633C20.0953 11.8976 19.9235 9.07734 18.4078 5.92109Z" fill="#5661EA"/>
<path d="M15.9548 6.85202C16.0022 6.76075 16.0311 6.66102 16.0399 6.55855C16.0486 6.45609 16.0371 6.3529 16.0059 6.25492C15.9747 6.15693 15.9244 6.06607 15.858 5.98754C15.7916 5.90902 15.7103 5.84438 15.6189 5.79733C13.8985 4.97728 12.0085 4.57573 10.1033 4.62545C8.19804 4.57573 6.30807 4.97728 4.58764 5.79733C4.4962 5.84438 4.41494 5.90902 4.34853 5.98754C4.28213 6.06607 4.23188 6.15693 4.20067 6.25492C4.16946 6.3529 4.1579 6.45609 4.16666 6.55855C4.17541 6.66102 4.20432 6.76075 4.2517 6.85202C4.34809 7.03535 4.51334 7.1729 4.71112 7.23443C4.90889 7.29596 5.12301 7.27643 5.30639 7.18014C6.80579 6.47893 8.44873 6.1391 10.1033 6.18795C11.7578 6.1391 13.4007 6.47893 14.9001 7.18014C15.0107 7.23982 15.1339 7.27198 15.2595 7.27389C15.403 7.27419 15.5437 7.23498 15.6664 7.16056C15.789 7.08615 15.8888 6.9794 15.9548 6.85202Z" fill="#5661EA"/>
</g>
<defs>
<clipPath id="clip0">
<rect width="20" height="20" fill="white" transform="translate(0 0.000976562)"/>
</clipPath>
</defs>
</svg>
