<svg width="20" height="20" viewBox="0 0 20 20" fill="none" xmlns="http://www.w3.org/2000/svg">
<path fill-rule="evenodd" clip-rule="evenodd" d="M10 16.6676C13.6819 16.6676 16.6667 13.6828 16.6667 10.0009C16.6667 6.31904 13.6819 3.33427 10 3.33427C6.31812 3.33427 3.33335 6.31904 3.33335 10.0009C3.33335 13.6828 6.31812 16.6676 10 16.6676ZM10 18.3343C14.6024 18.3343 18.3334 14.6033 18.3334 10.0009C18.3334 5.39856 14.6024 1.6676 10 1.6676C5.39765 1.6676 1.66669 5.39856 1.66669 10.0009C1.66669 14.6033 5.39765 18.3343 10 18.3343Z" fill="#777E91"/>
<path fill-rule="evenodd" clip-rule="evenodd" d="M10 5.83435C9.53978 5.83435 9.16669 6.20745 9.16669 6.66768C9.16669 7.12792 9.53978 7.50102 10 7.50102C10.4603 7.50102 10.8334 7.12792 10.8334 6.66768C10.8334 6.20745 10.4603 5.83435 10 5.83435ZM10 9.16768C9.53978 9.16768 9.16669 9.54078 9.16669 10.001V13.3344C9.16669 13.7946 9.53978 14.1677 10 14.1677C10.4603 14.1677 10.8334 13.7946 10.8334 13.3344V10.001C10.8334 9.54078 10.4603 9.16768 10 9.16768Z" fill="#777E91"/>
</svg>
