<svg width="20" height="20" viewBox="0 0 20 20" fill="none" xmlns="http://www.w3.org/2000/svg">
<path fill-rule="evenodd" clip-rule="evenodd" d="M2.65061 11.6675C1.2725 11.6714 0.382908 13.2413 1.23191 14.4307C2.44776 16.134 4.65255 17.501 8.3334 17.501C14.0376 17.501 18.6165 12.8524 17.9755 7.36023L18.9146 5.48206C19.5658 4.17954 18.4341 2.69783 17.0061 2.98343L15.7655 3.23155C15.4366 3.058 15.0961 2.92703 14.8052 2.83215C14.2382 2.64724 13.552 2.50098 12.9167 2.50098C11.7756 2.50098 10.7908 2.79373 10.0081 3.38092C9.2344 3.96151 8.79856 4.72452 8.5594 5.42518C8.44915 5.74815 8.37573 6.07209 8.32862 6.383C7.8859 6.24367 7.43447 6.05619 6.99252 5.82727C5.98986 5.30791 5.17906 4.64949 4.72169 4.07223C3.95433 3.10373 2.32813 3.17553 1.75748 4.43448C0.953197 6.20887 1.17382 8.31219 1.89677 10.0117C2.13909 10.5813 2.4543 11.1444 2.83939 11.6662C2.77346 11.667 2.7104 11.6673 2.65061 11.6675ZM8.33331 15.8343C5.11386 15.8343 3.44914 14.6682 2.58835 13.4624C2.54967 13.4082 2.58867 13.3343 2.65523 13.3341C3.53093 13.3316 5.32843 13.2902 6.51393 12.5964C6.57524 12.5605 6.56175 12.4701 6.49441 12.4475C3.73094 11.5183 2.16008 7.58313 3.2754 5.12256C3.30097 5.06614 3.37681 5.0587 3.41528 5.10726C4.68934 6.71529 7.47501 8.29031 9.89865 8.3334C9.95123 8.33431 9.99098 8.28656 9.98298 8.23458C9.88531 7.60142 9.5124 4.16764 12.9166 4.16764C13.7296 4.16764 14.9391 4.56417 15.3846 4.97039C15.4051 4.98917 15.4331 4.99769 15.4604 4.99223L17.3329 4.61773C17.4009 4.60413 17.4548 4.67468 17.4238 4.73671L16.2624 7.05947C16.2543 7.07559 16.2518 7.0941 16.2549 7.11186C17.0683 11.6843 13.3233 15.8343 8.33331 15.8343Z" fill="#00A2F5"/>
</svg>
